<svg width="12" height="13" viewBox="0 0 12 13" fill="none" xmlns="http://www.w3.org/2000/svg">
<g id="fluent:delete-16-filled" clip-path="url(#clip0_2050_3849)">
<path id="Vector" d="M5.19231 2.21429H6.80769C6.80769 1.98696 6.7226 1.76894 6.57112 1.60819C6.41965 1.44745 6.21421 1.35714 6 1.35714C5.78579 1.35714 5.58035 1.44745 5.42888 1.60819C5.2774 1.76894 5.19231 1.98696 5.19231 2.21429ZM4.38462 2.21429C4.38462 1.75963 4.55481 1.32359 4.85775 1.0021C5.16069 0.680612 5.57157 0.5 6 0.5C6.42843 0.5 6.83931 0.680612 7.14225 1.0021C7.44519 1.32359 7.61538 1.75963 7.61538 2.21429H10.8462C10.9533 2.21429 11.056 2.25944 11.1317 2.33981C11.2075 2.42018 11.25 2.52919 11.25 2.64286C11.25 2.75652 11.2075 2.86553 11.1317 2.9459C11.056 3.02628 10.9533 3.07143 10.8462 3.07143H10.3906L9.41735 10.6469C9.35134 11.1602 9.11229 11.6308 8.74446 11.9715C8.37663 12.3123 7.90493 12.5 7.41669 12.5H4.58331C4.09507 12.5 3.62337 12.3123 3.25554 11.9715C2.88771 11.6308 2.64866 11.1602 2.58265 10.6469L1.60938 3.07143H1.15385C1.04674 3.07143 0.94402 3.02628 0.868284 2.9459C0.792548 2.86553 0.75 2.75652 0.75 2.64286C0.75 2.52919 0.792548 2.42018 0.868284 2.33981C0.94402 2.25944 1.04674 2.21429 1.15385 2.21429H4.38462ZM5.19231 5.21429C5.19231 5.10062 5.14976 4.99161 5.07402 4.91124C4.99829 4.83087 4.89557 4.78571 4.78846 4.78571C4.68135 4.78571 4.57863 4.83087 4.5029 4.91124C4.42716 4.99161 4.38462 5.10062 4.38462 5.21429V9.5C4.38462 9.61366 4.42716 9.72267 4.5029 9.80305C4.57863 9.88342 4.68135 9.92857 4.78846 9.92857C4.89557 9.92857 4.99829 9.88342 5.07402 9.80305C5.14976 9.72267 5.19231 9.61366 5.19231 9.5V5.21429ZM7.21154 4.78571C7.10443 4.78571 7.00171 4.83087 6.92598 4.91124C6.85024 4.99161 6.80769 5.10062 6.80769 5.21429V9.5C6.80769 9.61366 6.85024 9.72267 6.92598 9.80305C7.00171 9.88342 7.10443 9.92857 7.21154 9.92857C7.31865 9.92857 7.42137 9.88342 7.4971 9.80305C7.57284 9.72267 7.61538 9.61366 7.61538 9.5V5.21429C7.61538 5.10062 7.57284 4.99161 7.4971 4.91124C7.42137 4.83087 7.31865 4.78571 7.21154 4.78571Z" fill="#A65EFC"/>
</g>
<defs>
<clipPath id="clip0_2050_3849">
<rect width="12" height="12" fill="white" transform="translate(0 0.5)"/>
</clipPath>
</defs>
</svg>
