<svg width="24" height="25" viewBox="0 0 24 25" fill="none" xmlns="http://www.w3.org/2000/svg">
<g id="Plus Small">
<path id="Vector" fill-rule="evenodd" clip-rule="evenodd" d="M12 5.75C12.1989 5.75 12.3897 5.82902 12.5303 5.96967C12.671 6.11032 12.75 6.30109 12.75 6.5V11.75H18C18.1989 11.75 18.3897 11.829 18.5303 11.9697C18.671 12.1103 18.75 12.3011 18.75 12.5C18.75 12.6989 18.671 12.8897 18.5303 13.0303C18.3897 13.171 18.1989 13.25 18 13.25H12.75V18.5C12.75 18.6989 12.671 18.8897 12.5303 19.0303C12.3897 19.171 12.1989 19.25 12 19.25C11.8011 19.25 11.6103 19.171 11.4697 19.0303C11.329 18.8897 11.25 18.6989 11.25 18.5V13.25H6C5.80109 13.25 5.61032 13.171 5.46967 13.0303C5.32902 12.8897 5.25 12.6989 5.25 12.5C5.25 12.3011 5.32902 12.1103 5.46967 11.9697C5.61032 11.829 5.80109 11.75 6 11.75H11.25V6.5C11.25 6.30109 11.329 6.11032 11.4697 5.96967C11.6103 5.82902 11.8011 5.75 12 5.75Z" fill="#90859E"/>
</g>
</svg>
