<svg width="64" height="64" viewBox="0 0 64 64" fill="none" xmlns="http://www.w3.org/2000/svg">
<g id="fluent:document-16-filled">
<path id="Vector" d="M32 4V18C32 19.5913 32.6321 21.1174 33.7574 22.2426C34.8826 23.3679 36.4087 24 38 24H52V54C52 55.5913 51.3679 57.1174 50.2426 58.2426C49.1174 59.3679 47.5913 60 46 60H18C16.4087 60 14.8826 59.3679 13.7574 58.2426C12.6321 57.1174 12 55.5913 12 54V10C12 8.4087 12.6321 6.88258 13.7574 5.75736C14.8826 4.63214 16.4087 4 18 4H32ZM36 5V18C36 18.5304 36.2107 19.0391 36.5858 19.4142C36.9609 19.7893 37.4696 20 38 20H51L36 5Z" fill="#A65EFC"/>
</g>
</svg>
