<svg width="14" height="14" viewBox="0 0 14 14" fill="none" xmlns="http://www.w3.org/2000/svg">
<g id="Frame">
<path id="Vector" d="M13.5811 2.60306C13.3429 2.40618 13.0366 2.31138 12.7288 2.33934C12.4211 2.3673 12.1368 2.51573 11.938 2.75232L7.00006 8.67703L2.06201 2.75241C1.86378 2.5149 1.57932 2.36587 1.2712 2.33809C0.963086 2.31031 0.656555 2.40607 0.419043 2.6043C0.18153 2.80253 0.0324918 3.08699 0.00471465 3.3951C-0.0230625 3.70322 0.0726967 4.00975 0.270926 4.24726L6.10452 11.2474C6.21395 11.3787 6.35089 11.4843 6.50564 11.5567C6.6604 11.6292 6.82918 11.6667 7.00006 11.6667C7.17093 11.6667 7.33972 11.6292 7.49447 11.5567C7.64923 11.4843 7.78617 11.3787 7.8956 11.2474L13.7292 4.24716C13.9274 4.00941 14.0231 3.70273 13.9953 3.39447C13.9675 3.08621 13.8185 2.80158 13.5811 2.60306Z" fill="#332051"/>
</g>
</svg>
