<svg width="64" height="65" viewBox="0 0 64 65" fill="none" xmlns="http://www.w3.org/2000/svg">
<g id="fluent:error-circle-16-filled">
<path id="Vector" d="M32 8.5C35.1517 8.5 38.2726 9.12078 41.1844 10.3269C44.0962 11.533 46.742 13.3008 48.9706 15.5294C51.1992 17.758 52.967 20.4038 54.1731 23.3156C55.3792 26.2274 56 29.3483 56 32.5C56 35.6517 55.3792 38.7726 54.1731 41.6844C52.967 44.5962 51.1992 47.242 48.9706 49.4706C46.742 51.6992 44.0962 53.467 41.1844 54.6731C38.2726 55.8792 35.1517 56.5 32 56.5C25.6348 56.5 19.5303 53.9714 15.0294 49.4706C10.5286 44.9697 8 38.8652 8 32.5C8 26.1348 10.5286 20.0303 15.0294 15.5294C19.5303 11.0286 25.6348 8.5 32 8.5ZM32 40.5C31.2044 40.5 30.4413 40.8161 29.8787 41.3787C29.3161 41.9413 29 42.7043 29 43.5C29 44.2957 29.3161 45.0587 29.8787 45.6213C30.4413 46.1839 31.2044 46.5 32 46.5C32.7956 46.5 33.5587 46.1839 34.1213 45.6213C34.6839 45.0587 35 44.2957 35 43.5C35 42.7043 34.6839 41.9413 34.1213 41.3787C33.5587 40.8161 32.7956 40.5 32 40.5ZM32 18.5C31.5319 18.4998 31.0786 18.6639 30.719 18.9636C30.3594 19.2632 30.1163 19.6795 30.032 20.14L30 20.5V34.5L30.032 34.86C30.1155 35.3211 30.3583 35.7383 30.7179 36.0387C31.0776 36.3391 31.5314 36.5037 32 36.5037C32.4686 36.5037 32.9224 36.3391 33.2821 36.0387C33.6417 35.7383 33.8845 35.3211 33.968 34.86L34 34.5V20.5L33.968 20.14C33.8837 19.6795 33.6406 19.2632 33.281 18.9636C32.9214 18.6639 32.4681 18.4998 32 18.5Z" fill="#E91E7F"/>
</g>
</svg>
