<svg width="14" height="15" viewBox="0 0 14 15" fill="none" xmlns="http://www.w3.org/2000/svg">
<g id="size guide icon" clip-path="url(#clip0_1948_3795)">
<path id="Vector" d="M4.7779 7.85817C3.59374 7.85817 2.65058 7.56915 1.92602 7.12611V5.38153C2.10162 5.58537 2.32355 5.76537 2.58761 5.91538C3.16584 6.24431 3.90259 6.41092 4.7779 6.41092C5.65322 6.41092 6.18312 6.41092 7.16508 6.1444C7.16574 6.1444 7.16641 6.14413 7.16707 6.14386C7.30032 6.1077 7.442 6.06672 7.59498 6.02011C8.26721 5.8152 8.79488 5.46805 9.13986 5.01885V7.85817H4.7779ZM5.97182 2.96918C5.59513 2.85319 4.83799 2.66649 4.00103 2.72114C3.24898 2.77042 2.64415 3.0107 2.25172 3.41624C2.02535 3.65035 1.91272 3.93615 1.92492 4.22839C1.92492 4.22973 1.92492 4.23134 1.92514 4.23268C1.92913 4.32027 1.94376 4.40812 1.97037 4.49545C2.13044 5.01885 2.74902 5.61537 3.97486 5.79859V4.26187C3.97486 4.26187 3.97486 4.26053 3.97486 4.26V4.25759C3.97486 4.25518 3.97509 4.25303 3.97509 4.25089C3.97509 4.24446 3.97531 4.23777 3.97597 4.23134C3.97642 4.22652 3.97708 4.22196 3.97752 4.21714C3.97797 4.21285 3.97841 4.20857 3.97908 4.20455C3.98019 4.19759 3.98174 4.19062 3.98329 4.18393C3.98373 4.18205 3.98395 4.18044 3.9844 4.17857C3.9844 4.17857 3.9844 4.17803 3.98462 4.17776C3.98661 4.17026 3.98883 4.16276 3.99105 4.15526C3.99149 4.15392 3.99194 4.15259 3.99238 4.15125C3.9946 4.14509 3.99704 4.13892 3.99947 4.13276C4.00036 4.13035 4.00125 4.12794 4.00236 4.1258C4.00391 4.12232 4.00568 4.11883 4.00746 4.11535C4.02453 4.0808 4.04714 4.0516 4.07375 4.02937C4.07463 4.02857 4.07552 4.02776 4.07641 4.02696C4.07774 4.02589 4.07929 4.02482 4.08084 4.02374C4.09703 4.01116 4.11454 4.00098 4.13339 3.99348C4.13427 3.99321 4.13516 3.99267 4.13605 3.99214C4.13915 3.99107 4.14248 3.99026 4.14558 3.98919C4.14979 3.98785 4.15401 3.98624 4.15822 3.98517C4.15999 3.98464 4.16177 3.98464 4.16354 3.9841C4.16931 3.98276 4.17507 3.98169 4.18106 3.98089C4.18239 3.98089 4.1835 3.98089 4.18483 3.98062C4.19126 3.97982 4.19768 3.97955 4.20434 3.97955C4.20456 3.97955 4.20478 3.97955 4.205 3.97955C4.20677 3.97955 4.20833 3.97955 4.20988 3.97982C4.21542 3.97982 4.22119 3.98008 4.22695 3.98089C4.23072 3.98142 4.23427 3.98223 4.23804 3.98276C4.24181 3.9833 4.24557 3.98383 4.24912 3.98491C4.25466 3.98624 4.25999 3.98785 4.26531 3.98973C4.26708 3.99026 4.26885 3.99053 4.27041 3.99133C4.27129 3.9916 4.27196 3.99187 4.27284 3.99214C4.27284 3.99214 4.27329 3.99214 4.27351 3.99214C5.03265 4.26402 5.68515 4.19009 6.22347 4.0816C6.67399 3.9908 6.88328 3.76044 6.88794 3.62597C6.89237 3.49767 6.7068 3.19525 5.97204 2.96891L5.97182 2.96918ZM4.43469 4.61652V5.84573C4.54511 5.85216 4.65929 5.85537 4.7779 5.85537C5.61088 5.85537 6.0727 5.85537 6.88927 5.64832V4.39875C6.72786 4.50402 6.52854 4.58357 6.29863 4.62991C5.7776 4.73491 5.15703 4.80965 4.43469 4.61625V4.61652ZM0.00112104 3.96615C0.00976781 4.28625 0.0658609 4.61491 0.171618 4.94304C0.3818 5.59475 0.804605 6.26734 1.46597 6.80173V4.29053C1.43604 3.81696 1.60609 3.35195 1.95263 2.99382C2.42931 2.50122 3.10997 2.22292 3.97597 2.16613C4.87391 2.1072 5.68293 2.30649 6.08534 2.43051C7.12606 2.75114 7.3307 3.26088 7.34644 3.57802C7.34799 3.59088 7.3491 3.60401 7.3491 3.61767V5.52135C7.39255 5.5085 7.4369 5.49537 7.48235 5.48144C8.4346 5.19108 9.03411 4.60072 9.12723 3.86196C9.22279 3.10364 8.75786 2.2647 7.8832 1.61755C6.84936 0.852543 5.47874 0.44727 4.12252 0.505664C2.72419 0.565665 1.50632 1.09522 0.693306 1.99684C0.235249 2.50471 -0.00198292 3.17141 1.24842e-05 3.88687C0.00067762 3.89624 0.00112104 3.90562 0.00112104 3.91526C0.00112104 3.93214 0.00112104 3.94928 0.00112104 3.96642V3.96615ZM4.77768 8.41398C3.56647 8.41398 2.46855 8.11103 1.58947 7.53647C1.58725 7.53513 1.58503 7.53352 1.58281 7.53218C1.53692 7.50218 1.49169 7.47165 1.4469 7.44004C0.824116 6.99914 0.333689 6.43288 0.00378159 5.77904C0.00444672 6.0927 0.00533357 6.40904 0.00599871 6.72217C0.0104329 8.56934 0.0146455 10.3139 0.00200789 10.8558C-0.0150639 11.5916 0.223276 12.291 0.691532 12.8789C0.69774 12.8867 0.703948 12.8945 0.710378 12.9023V11.8643H1.17021V13.3713C1.46952 13.6255 1.85485 13.8711 2.34816 14.068V13.0011H2.80799V14.2268C3.15453 14.3291 3.54541 14.4082 3.98595 14.4545V11.8643H4.44578V14.4896C4.55398 14.495 4.66461 14.4984 4.77813 14.4998H5.62374V13.0011H6.08357V14.4992H7.26152V11.8643H7.72135V14.4987H8.89931V13.0011H9.35914V14.4982H10.5371V11.8643H10.9969V14.4976H12.1749V13.0011H12.6347V14.4971L13.9987 14.4966V8.41344H4.7779L4.77768 8.41398Z" fill="#A65EFC"/>
</g>
<defs>
<clipPath id="clip0_1948_3795">
<rect width="14" height="14" fill="white" transform="translate(0 0.5)"/>
</clipPath>
</defs>
</svg>
